<?xml version="1.0" encoding="UTF-8"?>
<svg id="_Ï_h_1" data-name="¹Ï¼h_1" xmlns="http://www.w3.org/2000/svg" viewBox="0 0 16 16">
  <defs>
    <style>
      .cls-1 {
        fill: #de2526;
      }

      .cls-2 {
        fill: #0057a1;
      }
    </style>
  </defs>
  <path class="cls-1" d="m4.07,12.53c-.58,0-1.08-.12-1.49-.32.95.78,2.15,1.27,3.47,1.27,2.77,0,5.16-2,5.41-4.73-1.41,1.78-4.8,3.78-7.39,3.78Z"/>
  <path class="cls-2" d="m4.13,2.88C1.93,3.62.57,5.65.57,8c0,1.07.31,2.11.9,3-.17-.41-.26-.88-.26-1.44,0-3.09,2.09-5.74,2.92-6.67Z"/>
  <path class="cls-2" d="m3.54,10.33c1.91,0,5.63-2.43,7.15-4.85.07-.11.07-.25,0-.37-.97-1.55-2.67-2.59-4.63-2.59-.27,0-.55.03-.82.08-.33.05-.62.23-.83.49-.82,1.05-2.12,3.11-2.12,5.52,0,1.09.46,1.73,1.24,1.73Z"/>
  <circle class="cls-1" cx="13.74" cy="5.13" r="1.68"/>
</svg>